<svg width="21" height="21" viewBox="0 0 21 21" fill="none" xmlns="http://www.w3.org/2000/svg">
<path d="M14.9337 12.3571C14.9337 12.4286 14.898 12.5089 14.8444 12.5625L14.398 13.0089C14.3444 13.0625 14.2641 13.0982 14.1927 13.0982C14.1212 13.0982 14.0409 13.0625 13.9873 13.0089L10.4784 9.49999L6.96944 13.0089C6.91587 13.0625 6.83551 13.0982 6.76408 13.0982C6.68372 13.0982 6.6123 13.0625 6.55872 13.0089L6.1123 12.5625C6.05872 12.5089 6.02301 12.4286 6.02301 12.3571C6.02301 12.2857 6.05872 12.2053 6.1123 12.1518L10.273 7.99106C10.3266 7.93749 10.4069 7.90178 10.4784 7.90178C10.5498 7.90178 10.6302 7.93749 10.6837 7.99106L14.8444 12.1518C14.898 12.2053 14.9337 12.2857 14.9337 12.3571Z" fill="white"/>
</svg>
